<?xml version="1.0" encoding="UTF-8" standalone="no"?>
<!DOCTYPE svg PUBLIC "-//W3C//DTD SVG 1.1//EN"
 "http://www.w3.org/Graphics/SVG/1.1/DTD/svg11.dtd">
<!-- Generated by graphviz version 2.28.0 (20130928.0220)
 -->
<!-- Title: boost Pages: 1 -->
<svg width="980pt" height="831pt"
 viewBox="0.00 0.00 980.00 831.50" xmlns="http://www.w3.org/2000/svg" xmlns:xlink="http://www.w3.org/1999/xlink">
<g id="graph1" class="graph" transform="scale(1 1) rotate(0) translate(4 827.495)">
<title>boost</title>
<polygon fill="white" stroke="white" points="-4,5 -4,-827.495 977,-827.495 977,5 -4,5"/>
<text text-anchor="middle" x="486" y="-806.895" font-family="Times,serif" font-size="14.00">boost_1_51_0</text>
<!-- chrono -->
<g id="node1" class="node"><title>chrono</title>
<polygon fill="steelblue" stroke="steelblue" points="720,-145.695 504,-145.695 504,-127.695 720,-127.695 720,-145.695"/>
<text text-anchor="middle" x="612" y="-134.295" font-family="DejaVu Sans Mono" font-size="8.00">libboost_chrono.so.1.51.0</text>
</g>
<!-- system -->
<g id="node21" class="node"><title>system</title>
<polygon fill="steelblue" stroke="steelblue" points="972,-126.695 756,-126.695 756,-108.695 972,-108.695 972,-126.695"/>
<text text-anchor="middle" x="864" y="-115.295" font-family="DejaVu Sans Mono" font-size="8.00">libboost_system.so.1.51.0</text>
</g>
<!-- chrono&#45;&gt;system -->
<g id="edge2" class="edge"><title>chrono&#45;&gt;system</title>
<path fill="none" stroke="black" d="M720.11,-128.555C728.588,-127.911 737.178,-127.258 745.719,-126.609"/>
<polygon fill="black" stroke="black" points="746.009,-130.097 755.714,-125.849 745.478,-123.117 746.009,-130.097"/>
</g>
<!-- context -->
<g id="node2" class="node"><title>context</title>
<polygon fill="#cccccc" stroke="#cccccc" points="216,-257.695 0,-257.695 0,-239.695 216,-239.695 216,-257.695"/>
<text text-anchor="middle" x="108" y="-246.295" font-family="DejaVu Sans Mono" font-size="8.00">libboost_context.so.1.51.0</text>
</g>
<!-- date_time -->
<g id="node3" class="node"><title>date_time</title>
<polygon fill="steelblue" stroke="steelblue" points="468,-72.6954 252,-72.6954 252,-54.6954 468,-54.6954 468,-72.6954"/>
<text text-anchor="middle" x="360" y="-61.2954" font-family="DejaVu Sans Mono" font-size="8.00">libboost_date_time.so.1.51.0</text>
</g>
<!-- filesystem -->
<g id="node4" class="node"><title>filesystem</title>
<polygon fill="steelblue" stroke="steelblue" points="720,-53.6954 504,-53.6954 504,-35.6954 720,-35.6954 720,-53.6954"/>
<text text-anchor="middle" x="612" y="-42.2954" font-family="DejaVu Sans Mono" font-size="8.00">libboost_filesystem.so.1.51.0</text>
</g>
<!-- filesystem&#45;&gt;system -->
<g id="edge4" class="edge"><title>filesystem&#45;&gt;system</title>
<path fill="none" stroke="black" d="M643.906,-53.7198C688.883,-66.8531 772.437,-91.251 822.351,-105.826"/>
<polygon fill="black" stroke="black" points="821.585,-109.248 832.165,-108.692 823.547,-102.529 821.585,-109.248"/>
</g>
<!-- grap -->
<g id="node5" class="node"><title>grap</title>
<polygon fill="#cccccc" stroke="#cccccc" points="216,-294.695 0,-294.695 0,-276.695 216,-276.695 216,-294.695"/>
<text text-anchor="middle" x="108" y="-283.295" font-family="DejaVu Sans Mono" font-size="8.00">libboost_graph.so.1.51.0</text>
</g>
<!-- regex -->
<g id="node18" class="node"><title>regex</title>
<polygon fill="steelblue" stroke="steelblue" points="468,-294.695 252,-294.695 252,-276.695 468,-276.695 468,-294.695"/>
<text text-anchor="middle" x="360" y="-283.295" font-family="DejaVu Sans Mono" font-size="8.00">libboost_regex.so.1.51.0</text>
</g>
<!-- grap&#45;&gt;regex -->
<g id="edge6" class="edge"><title>grap&#45;&gt;regex</title>
<path fill="none" stroke="black" d="M216.11,-285.695C224.496,-285.695 232.991,-285.695 241.441,-285.695"/>
<polygon fill="black" stroke="black" points="241.715,-289.195 251.714,-285.695 241.714,-282.195 241.715,-289.195"/>
</g>
<!-- iostreams -->
<g id="node6" class="node"><title>iostreams</title>
<polygon fill="#cccccc" stroke="#cccccc" points="216,-330.695 0,-330.695 0,-312.695 216,-312.695 216,-330.695"/>
<text text-anchor="middle" x="108" y="-319.295" font-family="DejaVu Sans Mono" font-size="8.00">libboost_iostreams.so.1.51.0</text>
</g>
<!-- locale -->
<g id="node7" class="node"><title>locale</title>
<polygon fill="#cccccc" stroke="#cccccc" points="216,-219.695 0,-219.695 0,-201.695 216,-201.695 216,-219.695"/>
<text text-anchor="middle" x="108" y="-208.295" font-family="DejaVu Sans Mono" font-size="8.00">libboost_locale.so.1.51.0</text>
</g>
<!-- locale&#45;&gt;chrono -->
<g id="edge8" class="edge"><title>locale&#45;&gt;chrono</title>
<path fill="none" stroke="black" d="M216.179,-213.751C288.145,-213.679 384.677,-209.457 468,-191.695 509.888,-182.766 555.654,-163.311 583.85,-150.104"/>
<polygon fill="black" stroke="black" points="585.531,-153.18 593.055,-145.72 582.521,-146.86 585.531,-153.18"/>
</g>
<!-- locale&#45;&gt;system -->
<g id="edge10" class="edge"><title>locale&#45;&gt;system</title>
<path fill="none" stroke="black" d="M216.184,-218.939C340.038,-225.279 548.769,-226.083 720,-177.695 761.949,-165.841 808.037,-144.981 836.248,-131.249"/>
<polygon fill="black" stroke="black" points="838.023,-134.276 845.445,-126.715 834.928,-127.997 838.023,-134.276"/>
</g>
<!-- thread -->
<g id="node22" class="node"><title>thread</title>
<polygon fill="steelblue" stroke="steelblue" points="468,-182.695 252,-182.695 252,-164.695 468,-164.695 468,-182.695"/>
<text text-anchor="middle" x="360" y="-171.295" font-family="DejaVu Sans Mono" font-size="8.00">libboost_thread.so.1.51.0</text>
</g>
<!-- locale&#45;&gt;thread -->
<g id="edge12" class="edge"><title>locale&#45;&gt;thread</title>
<path fill="none" stroke="black" d="M169.837,-201.691C205.375,-196.432 250.406,-189.767 287.617,-184.26"/>
<polygon fill="black" stroke="black" points="288.51,-187.666 297.89,-182.74 287.485,-180.742 288.51,-187.666"/>
</g>
<!-- math_c99 -->
<g id="node8" class="node"><title>math_c99</title>
<polygon fill="#cccccc" stroke="#cccccc" points="216,-366.695 0,-366.695 0,-348.695 216,-348.695 216,-366.695"/>
<text text-anchor="middle" x="108" y="-355.295" font-family="DejaVu Sans Mono" font-size="8.00">libboost_math_c99.so.1.51.0</text>
</g>
<!-- math_c99f -->
<g id="node9" class="node"><title>math_c99f</title>
<polygon fill="#cccccc" stroke="#cccccc" points="216,-402.695 0,-402.695 0,-384.695 216,-384.695 216,-402.695"/>
<text text-anchor="middle" x="108" y="-391.295" font-family="DejaVu Sans Mono" font-size="8.00">libboost_math_c99f.so.1.51.0</text>
</g>
<!-- math_c99l -->
<g id="node10" class="node"><title>math_c99l</title>
<polygon fill="#cccccc" stroke="#cccccc" points="216,-438.695 0,-438.695 0,-420.695 216,-420.695 216,-438.695"/>
<text text-anchor="middle" x="108" y="-427.295" font-family="DejaVu Sans Mono" font-size="8.00">libboost_math_c99l.so.1.51.0</text>
</g>
<!-- math_tr1 -->
<g id="node11" class="node"><title>math_tr1</title>
<polygon fill="#cccccc" stroke="#cccccc" points="216,-474.695 0,-474.695 0,-456.695 216,-456.695 216,-474.695"/>
<text text-anchor="middle" x="108" y="-463.295" font-family="DejaVu Sans Mono" font-size="8.00">libboost_math_tr1.so.1.51.0</text>
</g>
<!-- math_tr1f -->
<g id="node12" class="node"><title>math_tr1f</title>
<polygon fill="#cccccc" stroke="#cccccc" points="216,-510.695 0,-510.695 0,-492.695 216,-492.695 216,-510.695"/>
<text text-anchor="middle" x="108" y="-499.295" font-family="DejaVu Sans Mono" font-size="8.00">libboost_math_tr1f.so.1.51.0</text>
</g>
<!-- math_tr1l -->
<g id="node13" class="node"><title>math_tr1l</title>
<polygon fill="#cccccc" stroke="#cccccc" points="216,-546.695 0,-546.695 0,-528.695 216,-528.695 216,-546.695"/>
<text text-anchor="middle" x="108" y="-535.295" font-family="DejaVu Sans Mono" font-size="8.00">libboost_math_tr1l.so.1.51.0</text>
</g>
<!-- prg_exec_monitor -->
<g id="node14" class="node"><title>prg_exec_monitor</title>
<polygon fill="#cccccc" stroke="#cccccc" points="216,-582.695 0,-582.695 0,-564.695 216,-564.695 216,-582.695"/>
<text text-anchor="middle" x="108" y="-571.295" font-family="DejaVu Sans Mono" font-size="8.00">libboost_prg_exec_monitor.so.1.51.0</text>
</g>
<!-- program_options -->
<g id="node15" class="node"><title>program_options</title>
<polygon fill="steelblue" stroke="steelblue" points="216,-618.695 0,-618.695 0,-600.695 216,-600.695 216,-618.695"/>
<text text-anchor="middle" x="108" y="-607.295" font-family="DejaVu Sans Mono" font-size="8.00">libboost_program_options.so.1.51.0</text>
</g>
<!-- python -->
<g id="node16" class="node"><title>python</title>
<polygon fill="steelblue" stroke="steelblue" points="216,-654.695 0,-654.695 0,-636.695 216,-636.695 216,-654.695"/>
<text text-anchor="middle" x="108" y="-643.295" font-family="DejaVu Sans Mono" font-size="8.00">libboost_python.so.1.51.0</text>
</g>
<!-- random -->
<g id="node17" class="node"><title>random</title>
<polygon fill="#cccccc" stroke="#cccccc" points="216,-690.695 0,-690.695 0,-672.695 216,-672.695 216,-690.695"/>
<text text-anchor="middle" x="108" y="-679.295" font-family="DejaVu Sans Mono" font-size="8.00">libboost_random.so.1.51.0</text>
</g>
<!-- serialization -->
<g id="node19" class="node"><title>serialization</title>
<polygon fill="#cccccc" stroke="#cccccc" points="468,-726.695 252,-726.695 252,-708.695 468,-708.695 468,-726.695"/>
<text text-anchor="middle" x="360" y="-715.295" font-family="DejaVu Sans Mono" font-size="8.00">libboost_serialization.so.1.51.0</text>
</g>
<!-- signals -->
<g id="node20" class="node"><title>signals</title>
<polygon fill="#cccccc" stroke="#cccccc" points="216,-762.695 0,-762.695 0,-744.695 216,-744.695 216,-762.695"/>
<text text-anchor="middle" x="108" y="-751.295" font-family="DejaVu Sans Mono" font-size="8.00">libboost_signals.so.1.51.0</text>
</g>
<!-- thread&#45;&gt;chrono -->
<g id="edge14" class="edge"><title>thread&#45;&gt;chrono</title>
<path fill="none" stroke="black" d="M421.837,-164.691C457.375,-159.432 502.406,-152.767 539.617,-147.26"/>
<polygon fill="black" stroke="black" points="540.51,-150.666 549.89,-145.74 539.485,-143.742 540.51,-150.666"/>
</g>
<!-- thread&#45;&gt;system -->
<g id="edge16" class="edge"><title>thread&#45;&gt;system</title>
<path fill="none" stroke="black" d="M468,-173.622C539.68,-172.205 635.955,-167.658 720,-154.695 756.274,-149.101 796.686,-138.196 825.27,-129.669"/>
<polygon fill="black" stroke="black" points="826.305,-133.012 834.861,-126.764 824.276,-126.313 826.305,-133.012"/>
</g>
<!-- timer -->
<g id="node23" class="node"><title>timer</title>
<polygon fill="steelblue" stroke="steelblue" points="468,-108.695 252,-108.695 252,-90.6954 468,-90.6954 468,-108.695"/>
<text text-anchor="middle" x="360" y="-97.2954" font-family="DejaVu Sans Mono" font-size="8.00">libboost_timer.so.1.51.0</text>
</g>
<!-- timer&#45;&gt;chrono -->
<g id="edge18" class="edge"><title>timer&#45;&gt;chrono</title>
<path fill="none" stroke="black" d="M421.837,-108.699C457.375,-113.959 502.406,-120.624 539.617,-126.131"/>
<polygon fill="black" stroke="black" points="539.485,-129.649 549.89,-127.651 540.51,-122.725 539.485,-129.649"/>
</g>
<!-- timer&#45;&gt;system -->
<g id="edge20" class="edge"><title>timer&#45;&gt;system</title>
<path fill="none" stroke="black" d="M468.076,-103.535C549.565,-106.457 661.624,-110.475 745.564,-113.485"/>
<polygon fill="black" stroke="black" points="745.538,-116.986 755.657,-113.846 745.789,-109.99 745.538,-116.986"/>
</g>
<!-- unit_test_framework -->
<g id="node24" class="node"><title>unit_test_framework</title>
<polygon fill="#cccccc" stroke="#cccccc" points="216,-798.695 0,-798.695 0,-780.695 216,-780.695 216,-798.695"/>
<text text-anchor="middle" x="108" y="-787.295" font-family="DejaVu Sans Mono" font-size="8.00">libboost_unit_test_framework.so.1.51.0</text>
</g>
<!-- wave -->
<g id="node25" class="node"><title>wave</title>
<polygon fill="#cccccc" stroke="#cccccc" points="216,-72.6954 0,-72.6954 0,-54.6954 216,-54.6954 216,-72.6954"/>
<text text-anchor="middle" x="108" y="-61.2954" font-family="DejaVu Sans Mono" font-size="8.00">libboost_wave.so.1.51.0</text>
</g>
<!-- wave&#45;&gt;chrono -->
<g id="edge22" class="edge"><title>wave&#45;&gt;chrono</title>
<path fill="none" stroke="black" d="M127.412,-72.7632C154.121,-85.4222 205.512,-107.934 252,-117.695 331.468,-134.382 422.885,-139.015 493.58,-139.537"/>
<polygon fill="black" stroke="black" points="493.84,-143.038 503.857,-139.585 493.873,-136.038 493.84,-143.038"/>
</g>
<!-- wave&#45;&gt;date_time -->
<g id="edge24" class="edge"><title>wave&#45;&gt;date_time</title>
<path fill="none" stroke="black" d="M216.11,-63.6954C224.496,-63.6954 232.991,-63.6954 241.441,-63.6954"/>
<polygon fill="black" stroke="black" points="241.715,-67.1955 251.714,-63.6954 241.714,-60.1955 241.715,-67.1955"/>
</g>
<!-- wave&#45;&gt;filesystem -->
<g id="edge26" class="edge"><title>wave&#45;&gt;filesystem</title>
<path fill="none" stroke="black" d="M167.636,-54.6704C193.441,-51.1244 224.157,-47.4798 252,-45.6954 332.477,-40.5378 423.311,-40.3382 493.474,-41.4024"/>
<polygon fill="black" stroke="black" points="493.617,-44.9051 503.672,-41.5682 493.731,-37.906 493.617,-44.9051"/>
</g>
<!-- wave&#45;&gt;system -->
<g id="edge28" class="edge"><title>wave&#45;&gt;system</title>
<path fill="none" stroke="black" d="M139.688,-54.6773C230.543,-29.4795 505.221,35.8483 720,-26.6954 770.514,-41.4051 820.22,-79.9542 845.607,-101.869"/>
<polygon fill="black" stroke="black" points="843.434,-104.619 853.251,-108.605 848.063,-99.3678 843.434,-104.619"/>
</g>
<!-- wave&#45;&gt;thread -->
<g id="edge30" class="edge"><title>wave&#45;&gt;thread</title>
<path fill="none" stroke="black" d="M120.884,-72.8608C144.51,-90.6258 199.627,-129.829 252,-150.695 264.026,-155.487 277.23,-159.357 290.133,-162.457"/>
<polygon fill="black" stroke="black" points="289.39,-165.877 299.917,-164.68 290.941,-159.051 289.39,-165.877"/>
</g>
<!-- wserialization -->
<g id="node26" class="node"><title>wserialization</title>
<polygon fill="#cccccc" stroke="#cccccc" points="216,-726.695 0,-726.695 0,-708.695 216,-708.695 216,-726.695"/>
<text text-anchor="middle" x="108" y="-715.295" font-family="DejaVu Sans Mono" font-size="8.00">libboost_wserialization.so.1.51.0</text>
</g>
<!-- wserialization&#45;&gt;serialization -->
<g id="edge32" class="edge"><title>wserialization&#45;&gt;serialization</title>
<path fill="none" stroke="black" d="M216.11,-717.695C224.496,-717.695 232.991,-717.695 241.441,-717.695"/>
<polygon fill="black" stroke="black" points="241.715,-721.195 251.714,-717.695 241.714,-714.195 241.715,-721.195"/>
</g>
</g>
</svg>
